<?xml version="1.0" encoding="utf-8"?>
<!-- Generator: Adobe Illustrator 23.0.3, SVG Export Plug-In . SVG Version: 6.00 Build 0)  -->
<svg version="1.1" id="Calque_1" xmlns="http://www.w3.org/2000/svg" xmlns:xlink="http://www.w3.org/1999/xlink" x="0px" y="0px"
	 viewBox="0 0 908 500" style="enable-background:new 0 0 908 500;" xml:space="preserve">
<style type="text/css">
	.st0{font-family:'Roboto-Black';}
	.st1{font-size:41px;}
	.st2{fill:#C90000;}
	.st3{fill:#031C35;}
	.st4{fill:#E59900;}
	.st5{fill:none;stroke:#000000;stroke-width:2;stroke-miterlimit:10;}
	.st6{font-family:'WorkSans-Bold';}
	.st7{font-size:74.1457px;}
	.st8{fill:#FFFFFF;}
	.st9{font-family:'Neulis-Bold';}
	.st10{font-size:108px;}
</style>
<text transform="matrix(1 0 0 1 348.5005 352.9424)" class="st0 st1">âtir l’Afrique de Demain</text>
<g>
	<path class="st3" d="M92.42,202.38c6-0.67,10.88-0.79,15.55,4.97c21.57,26.62,43.76,52.73,65.77,78.99
		c15.24,18.19,42.31,19.16,58.87,2.14c0.64-0.65,1.06-1.51,1.81-2.63c4.98,4.75,9.41,8.97,14.08,13.43
		c-8.03,9.13-17.51,15.51-29.02,18.31c-24.72,6-45.29-1.11-61.6-20.54c-15.11-18-30.12-36.07-45.19-54.1
		c-0.22-0.27-0.59-0.41-1.35-0.91c0,25.89,0,51.42,0,77.33c-6.46,0-12.53,0-18.92,0C92.42,280.41,92.42,241.48,92.42,202.38z"/>
	<polygon class="st3" points="153.34,202.24 172.27,202.24 172.27,231.07 153.04,234.55 	"/>
	<path class="st4" d="M250.12,298.65c-8.28,9.41-18.06,16-29.93,18.88c-17.88,4.34-33.67,2.02-47.31-6.67
		c-8.95-5.09-15.13-12.18-19.34-18.97c-0.01-0.01-0.02-0.03-0.03-0.04c-0.99-1.6-1.87-3.19-2.65-4.72
		c-0.13-0.25-0.26-0.51-0.38-0.76c-0.13-0.25-0.25-0.51-0.37-0.76c-0.24-0.5-0.46-1-0.69-1.48c-0.33-0.74-0.64-1.45-0.92-2.15
		c-0.17-0.42-0.33-0.83-0.49-1.23c-0.88-2.27-1.52-4.28-1.97-5.88c-0.03-0.09-0.06-0.19-0.08-0.28c-0.14-0.49-0.25-0.94-0.36-1.34
		c-0.03-0.12-0.06-0.23-0.08-0.34c-0.03-0.12-0.06-0.24-0.09-0.36c-0.01-0.02-0.01-0.04-0.01-0.06c-0.03-0.1-0.05-0.2-0.07-0.3
		c-0.03-0.13-0.06-0.25-0.08-0.39c-0.02-0.07-0.03-0.15-0.04-0.23c-0.01-0.05-0.02-0.11-0.03-0.15c-0.04-0.18-0.07-0.35-0.1-0.53
		c-0.43-2.19-0.74-4.44-0.95-6.75c-1.64-18.26,4.45-34.07,17.14-47.32c0.46-0.49,0.95-0.96,1.46-1.4c0.5-0.44,1.04-0.85,1.42-1.15
		c0.03,0.03,0.07,0.06,0.1,0.09c9.38-8.7,21.04-13.86,34.97-15.11c18.26-1.63,34.07,4.45,47.32,17.14c0.49,0.46,0.95,0.95,1.4,1.46
		c0.44,0.5,0.84,1.04,1.15,1.42c-4.21,4.64-8.1,8.93-12.29,13.55c-11.45-12.12-24.79-17.6-40.66-14.35
		c-7.42,1.53-14.23,4.84-19.94,9.54c-10.28,10.32-15.24,22.15-13.4,35.96c0,0,0,0.01,0.01,0.01c0.13,0.47,3.77,12.98,10.18,21.3
		c1.36,1.76,2.84,3.33,4.44,4.56c16.14,14.24,40.71,13.65,56.28-2.34c0.65-0.67,1.09-1.57,1.87-2.71
		C240.73,289.69,245.3,294.05,250.12,298.65z"/>
</g>
<line class="st5" x1="301.5" y1="100" x2="301.5" y2="390"/>
<text transform="matrix(1 0 0 1 318.5005 299.6836)" class="st4 st6 st7">CORPORATION</text>
<path class="st3" d="M177.14,372.69c20.76,0,40.19-5.66,56.84-15.53c-19.44,14-43.3,22.24-69.08,22.24
	c-65.39,0-118.4-53.01-118.4-118.4s53.01-118.4,118.4-118.4c25.78,0,49.63,8.24,69.08,22.24c-16.65-9.87-36.08-15.53-56.84-15.53
	c-61.69,0-111.69,50.01-111.69,111.69S115.45,372.69,177.14,372.69z"/>
<path class="st4" d="M167.06,160.59c-18.66,0-36.13,5.09-51.1,13.96c17.48-12.58,38.92-19.99,62.1-19.99
	c58.78,0,106.44,47.66,106.44,106.44s-47.66,106.44-106.44,106.44c-23.18,0-44.62-7.41-62.1-19.99
	c14.97,8.87,32.44,13.96,51.1,13.96c55.45,0,100.41-44.95,100.41-100.41S222.52,160.59,167.06,160.59z"/>
<g>
	<path class="st8" d="M207.56,266.95c-0.14,0.09-0.24,0.23-0.37,0.24c-1.73,0.26-3.33,0.87-4.9,1.64c-0.46,0.23-1.4-0.11-1.91-0.48
		c-0.82-0.59-1.67-0.79-2.62-0.86c-1.35-0.1-1.87-0.7-1.7-2c0.26-1.98,0.54-3.96,0.91-5.92c0.12-0.65,0.52-1.26,0.86-1.86
		c0.49-0.88,1.03-1.72,1.45-2.64c-1.94,1.42-1.95,1.43-3.99,0.16c-1.55-0.97-3.17-1.67-5.06-1.25c-0.37,0.08-0.72,0.24-1.07,0.44
		c1.62-0.23,3.18-0.2,4.5,0.57c-1.78,0.14-3.65,0.29-5.52,0.44c-0.02,0.1-0.03,0.21-0.05,0.31c1.04,1.06,2.15,2.02,3.62,2.54
		c0.28-0.7,0.06-1.59,1.01-1.81c0.7,1.49,0.82,1.53,2.28,0.93c0.12-0.05,0.58,0.29,0.56,0.42c-0.27,2.58,0.09,5.2-0.59,7.76
		c-0.46,1.71,0.1,2.57,1.67,3.39c0.4,0.21,0.82,0.4,1.23,0.57c0.95,0.4,1.72,0.97,2.15,1.97c0.19,0.43,0.57,0.78,0.87,1.16
		c0.52,0.66,0.55,1.33,0.05,2c-0.89,1.18-3.96,1.98-5.3,1.42c0.88-0.6,1.78-1.22,2.69-1.84c-0.05-0.07-0.1-0.14-0.14-0.2
		c-0.63,0.33-1.23,0.73-1.89,0.99c-0.98,0.39-1.95,0.31-2.87-0.25c-0.66-0.4-0.92-0.85-0.27-1.49c0.36-0.36,0.54-0.75-0.08-1.13
		c-1.57,0.89-2.51,2.35-3.32,4.02c-0.1-1.05,0.37-2.73,1.46-3.83c1.07-1.09,1.23-2,0.33-3.22c-0.33-0.45-0.44-1.05-0.67-1.6
		c-0.06,0.05-0.13,0.08-0.12,0.1c0.3,1.28-0.33,2.16-1.08,3.14c-4.35,5.59-3.51,12.35,2.02,16.69c0.16,0.12,0.33,0.22,0.56,0.37
		c-1.62-4.32-2.01-6.28-1.56-8.04c0.26,0.95,0.44,1.87,0.77,2.72c0.32,0.83,0.8,1.59,1.31,2.56c0.32-1.24,0.57-2.24,0.85-3.35
		c0.62,1.56,1.06,2.99,1.74,4.3c0.68,1.32,1.73,2.38,2.88,3.14c-0.42-2.46-0.85-4.96-1.3-7.58c-0.36,0.85-0.72,1.7-1.08,2.55
		c-0.07,0.02-0.15,0.04-0.22,0.05c-0.28-1.89-0.56-3.78-0.88-5.9c-0.56,0.72-1.05,1.35-1.55,1.98c-0.07-0.01-0.15-0.01-0.22-0.02
		c0.09-1.09,0.19-2.18,0.3-3.54c2.31,1.42,4.37,0.77,6.42,0.08c1.66-0.57,3.27-0.4,4.89,0.15c1.5,0.51,3.02,0.93,4.62,0.4
		c0.4-0.13,0.78-0.3,1.46-0.57c-0.1,1.35-0.19,2.53-0.28,3.72c-0.08,0-0.17,0.01-0.25,0.01c-0.39-0.59-0.78-1.18-1.18-1.76
		c-0.06,1.62,0.11,3.14-0.41,4.77c-0.55-0.81-1.02-1.49-1.48-2.17c-0.08,0.02-0.16,0.05-0.24,0.07c0.4,1.65,0.11,3.21-0.32,4.8
		c-0.32,1.21-0.36,2.5-0.51,3.75c-0.02,0.16,0.05,0.34,0.16,0.53c0.79-2.31,2.32-4.01,4.14-5.5c0.84-0.69,1.68-1.39,2.45-2.16
		c1.09-1.09,1.7-2.39,1.36-3.97c-0.4,0.51-0.76,1.02-1.19,1.48c-0.13,0.14-0.48,0.24-0.63,0.17c-0.15-0.07-0.26-0.4-0.24-0.61
		c0.04-0.42,0.15-0.83,0.28-1.23c0.68-2.03,1.12-4.09,0.64-6.24c-0.3-1.32,0.88-1.95,1.36-3.01c1.21,0.68,1.92,1.68,2.42,2.81
		c0.49,1.12,0.82,2.31,1.2,3.42c0.74-2.07-0.13-5.59-1.94-7.37c-0.46-0.45-0.54-0.8-0.3-1.4c0.8-1.99,0.54-3.72-0.75-5.15
		c0.95,3.34-0.96,5.43-2.91,7.5c-0.12-0.01-0.25-0.01-0.37-0.02c-0.03-0.38-0.16-0.78-0.08-1.14c0.26-1.15,0.51-2.29,0.18-3.27
		c-0.6,1.24-1.25,2.58-1.97,4.04c0.93,0.89,1.85,2.07,1.73,3.67c-0.05,0.63-0.31,1.32-0.69,1.82c-1.03,1.32-2.56,1.19-5.3-0.3
		c-0.04,0.06-0.09,0.13-0.13,0.19c0.91,0.63,1.82,1.25,2.8,1.93c-0.34,0.06-0.65,0.17-0.96,0.17c-1.43,0-2.75-0.41-3.93-1.21
		c-1.02-0.69-1.11-1.61-0.34-2.56c0.28-0.35,0.6-0.7,0.79-1.1c0.42-0.87,1.04-1.44,1.96-1.76c0.98-0.34,1.78-0.92,1.92-2.08
		c0.01-0.12,0.02-0.24,0-0.36C207.68,267.18,207.62,267.1,207.56,266.95z"/>
	<path class="st8" d="M203.28,308.87c-2.24-3.86-1.24-7.3,1.21-10.57c1.9-2.53,4.27-4.58,6.62-6.65c0.08,0.05,0.17,0.1,0.25,0.14
		c-0.41,0.99-0.76,2-1.23,2.95c-0.48,0.97-1.07,1.88-1.71,2.99c3.37-1.58,6.33-3.46,8.98-6.27c-0.03,1.99,0.31,3.64,1.29,5.13
		c-0.44-5.62,3.14-9.83,5.07-14.91c0.55,1.77,1.15,3.23,2.76,4.19c-0.09-0.88-0.2-1.59-0.23-2.29c-0.13-2.69-0.06-5.4-0.41-8.06
		c-0.5-3.85-2.09-7.19-5.57-9.33c-0.28-0.17-0.57-0.31-0.99-0.41c4.39,5.42,3.74,11.12,1.05,17.22c-0.27-1.39-0.48-2.52-0.7-3.66
		c-0.39,3.77-1.51,7.14-4.44,9.74c2.15-4.75,2.08-9.49,0.04-14.26c0,0.18-0.02,0.36,0,0.54c0.86,6.21-1.48,11.09-6.17,15.05
		c-2.26,1.91-4.52,3.85-6.54,6c-2.03,2.16-3.17,4.8-2.58,7.89C200.37,306.3,201.57,307.77,203.28,308.87z"/>
	<path class="st8" d="M227,267.18c-2.4-3.24-6.59-4.27-9.13-7.68c0.4,1.68,1.1,3,2.14,4.07c1.34,1.39,2.79,2.68,4.22,3.98
		c2.68,2.44,3.47,3.96,3.84,7.51c1.54-2.18,1.98-9.25,0.83-14.33c2.05,1.15,4.05,2.07,6.31,2.32c-0.02-0.11-0.01-0.2-0.04-0.22
		c-2.69-1.74-3.98-4.48-5.21-7.26c-0.47-1.05-0.95-2.09-1.5-3.1c-2.19-4.07-5.8-5.39-10.24-5.13c3.83,1.4,7,3.45,7.99,8.09
		c-5.29-3.54-11.63-4.45-16.65-8.29c0.18,0.45,0.26,1.03,0.58,1.35c0.97,0.97,1.94,2.01,3.1,2.72c2.42,1.48,5.04,2.65,7.44,4.16
		c3.51,2.19,5.92,5.24,6.48,9.49c0.05,0.42,0.07,0.84,0.09,1.27c0.01,0.3,0,0.6,0,0.9C227.17,267.08,227.08,267.13,227,267.18z"/>
	<path class="st8" d="M185.18,235.98c1.76,2.87,4.07,4.1,7.13,3.89c2.35-0.16,4.7-0.44,7.06-0.46c1.27-0.01,2.61,0.23,3.8,0.68
		c2.97,1.1,4.12,3.76,3.06,6.76c-0.25,0.71-0.61,1.38-0.82,2.1c3.22-1.97,3.79-4.86,2.61-8.47c1.89,1.13,2.56,2.76,2.91,4.86
		c0.79-1.85,0.58-3.35-0.33-4.78c-1.26-1.98-3.23-2.95-5.38-3.61c-2.78-0.84-5.62-0.7-8.46-0.31c-1.41,0.19-2.81,0.41-4.22,0.6
		C190.05,237.58,187.6,237.63,185.18,235.98z"/>
	<path class="st8" d="M211.05,246.72c4.39,0.51,7.28-2.24,7.21-6.97c1.48,1.43,1.88,2.99,1.3,4.89c1.69-0.91,2.29-3.03,1.5-4.98
		c-0.63-1.56-1.71-2.8-3.3-3.3c-2.23-0.71-4.53-1.26-6.83-1.71c-2.54-0.5-5.12-0.82-7.35-2.34c-0.06,0.07-0.11,0.13-0.17,0.2
		c0.5,0.52,0.91,1.2,1.52,1.53c1.66,0.91,3.4,1.69,5.12,2.49c1.04,0.49,2.15,0.84,3.13,1.41c2.05,1.19,2.63,3.46,1.56,5.58
		C213.95,245.08,212.62,246.02,211.05,246.72z"/>
	<path class="st8" d="M202.23,249.39c0.21-1.53-0.04-2.95-1.1-4.12c-1.04-1.15-2.46-1.55-3.89-1.97c1.13-0.41,2.29-0.4,3.37-0.04
		c1.03,0.35,1.97,0.95,2.91,1.41c-0.32-1.71-1.98-3.36-3.88-3.37c-1.73-0.01-3.48,0.3-5.19,0.61c-1.75,0.32-3.46,0.88-5.21,1.2
		c-1.03,0.19-2.11,0.21-3.16,0.13c-1.01-0.08-2-0.38-3.11-0.61c1.05,1.45,2.38,2.4,4.05,2.55c1.7,0.15,3.43-0.01,5.15-0.05
		c1.18-0.03,2.36-0.16,3.53-0.13c2.47,0.07,4.38,1.22,5.78,3.25C201.74,248.63,201.99,249.01,202.23,249.39z"/>
	<path class="st8" d="M199.12,279.65c-1.15,2.03-1.57,4.14-0.68,6.37c0.34,0.84,0.77,1.64,1.24,2.42c1.15,1.9,2.04,3.86,1.54,6.19
		c2.35-0.72,4.57-5.44,4.33-8.97c-0.84,1.26-1.72,2.59-2.59,3.92c-0.07-0.05-0.15-0.09-0.22-0.14c-0.53-2.55-1.06-5.11-1.61-7.75
		c-0.31,1.24-0.63,2.47-0.97,3.84C199.06,283.65,199.13,281.65,199.12,279.65z"/>
	<path class="st8" d="M198.06,247.53c-2.46-1.46-4.91-1.83-7.38-0.08c-0.42,0.3-0.84,0.59-1.24,0.91c-3.72,2.89-5.03,3.27-9.87,2.76
		c1.54,1.01,2.98,1.57,4.57,1.74c2.28,0.24,4.18-0.72,5.99-1.94c0.7-0.47,1.39-0.97,2.09-1.44
		C193.98,248.28,195.86,247.43,198.06,247.53z"/>
	<path class="st8" d="M210.05,256.39c0.27,0.57,0.54,1.14,0.88,1.84c1.33-0.46,2.45-1.4,3.47-2.48c-0.01-0.11-0.01-0.21-0.02-0.32
		c-1.89-0.15-3.77-0.3-5.54-0.44c1.29-0.76,2.85-0.8,4.51-0.49c-0.9-0.69-2.4-0.92-3.78-0.37c-1.14,0.45-2.23,1.08-3.27,1.74
		c-1.02,0.64-1.17,0.7-2.09-0.11c-0.29-0.26-0.54-0.57-0.81-0.85c-0.08,0.04-0.15,0.08-0.23,0.12c0.35,0.69,0.58,1.49,1.08,2.04
		c1.75,1.91,2.24,4.16,2.08,6.73c0.55-1.18,0.82-3.73,0.66-5.62c-0.02-0.27,0.08-0.55,0.13-0.82c0.23,0.09,0.48,0.16,0.69,0.28
		c0.85,0.46,1.45,0.12,1.9-1.1C209.84,256.48,209.95,256.44,210.05,256.39z"/>
	<path class="st8" d="M193.04,269.76c0.42-0.4,0.73-0.69,0.95-0.9c-0.7-1.4-1.38-2.75-2.02-4.03
		C191.53,266.48,192.24,268.05,193.04,269.76z"/>
</g>
<g>
	<path class="st3" d="M207.56,265.89c-0.14,0.09-0.24,0.23-0.37,0.24c-1.73,0.26-3.33,0.87-4.9,1.64c-0.46,0.23-1.4-0.11-1.91-0.48
		c-0.82-0.59-1.67-0.79-2.62-0.86c-1.35-0.1-1.87-0.7-1.7-2c0.26-1.98,0.54-3.96,0.91-5.92c0.12-0.65,0.52-1.26,0.86-1.86
		c0.49-0.88,1.03-1.72,1.45-2.64c-1.94,1.42-1.95,1.43-3.99,0.16c-1.55-0.97-3.17-1.67-5.06-1.25c-0.37,0.08-0.72,0.24-1.07,0.44
		c1.62-0.23,3.18-0.2,4.5,0.57c-1.78,0.14-3.65,0.29-5.52,0.44c-0.02,0.1-0.03,0.21-0.05,0.31c1.04,1.06,2.15,2.02,3.62,2.54
		c0.28-0.7,0.06-1.59,1.01-1.81c0.7,1.49,0.82,1.53,2.28,0.93c0.12-0.05,0.58,0.29,0.56,0.42c-0.27,2.58,0.09,5.2-0.59,7.76
		c-0.46,1.71,0.1,2.57,1.67,3.39c0.4,0.21,0.82,0.4,1.23,0.57c0.95,0.4,1.72,0.97,2.15,1.97c0.19,0.43,0.57,0.78,0.87,1.16
		c0.52,0.66,0.55,1.33,0.05,2c-0.89,1.18-3.96,1.98-5.3,1.42c0.88-0.6,1.78-1.22,2.69-1.84c-0.05-0.07-0.1-0.14-0.14-0.2
		c-0.63,0.33-1.23,0.73-1.89,0.99c-0.98,0.39-1.95,0.31-2.87-0.25c-0.66-0.4-0.92-0.85-0.27-1.49c0.36-0.36,0.54-0.75-0.08-1.13
		c-1.57,0.89-2.51,2.35-3.32,4.02c-0.1-1.05,0.37-2.73,1.46-3.83c1.07-1.09,1.23-2,0.33-3.22c-0.33-0.45-0.44-1.05-0.67-1.6
		c-0.06,0.05-0.13,0.08-0.12,0.1c0.3,1.28-0.33,2.16-1.08,3.14c-4.35,5.59-3.51,12.35,2.02,16.69c0.16,0.12,0.33,0.22,0.56,0.37
		c-1.62-4.32-2.01-6.28-1.56-8.04c0.26,0.95,0.44,1.87,0.77,2.72c0.32,0.83,0.8,1.59,1.31,2.56c0.32-1.24,0.57-2.24,0.85-3.35
		c0.62,1.56,1.06,2.99,1.74,4.3c0.68,1.32,1.73,2.38,2.88,3.14c-0.42-2.46-0.85-4.96-1.3-7.58c-0.36,0.85-0.72,1.7-1.08,2.55
		c-0.07,0.02-0.15,0.04-0.22,0.05c-0.28-1.89-0.56-3.78-0.88-5.9c-0.56,0.72-1.05,1.35-1.55,1.98c-0.07-0.01-0.15-0.01-0.22-0.02
		c0.09-1.09,0.19-2.18,0.3-3.54c2.31,1.43,4.37,0.77,6.42,0.08c1.66-0.57,3.27-0.4,4.89,0.15c1.5,0.51,3.02,0.93,4.62,0.4
		c0.4-0.13,0.78-0.3,1.46-0.57c-0.1,1.35-0.19,2.53-0.28,3.72c-0.08,0-0.17,0.01-0.25,0.01c-0.39-0.59-0.78-1.18-1.18-1.76
		c-0.06,1.62,0.11,3.14-0.41,4.77c-0.55-0.81-1.02-1.49-1.48-2.17c-0.08,0.02-0.16,0.05-0.24,0.07c0.4,1.65,0.11,3.21-0.32,4.8
		c-0.32,1.21-0.36,2.5-0.51,3.75c-0.02,0.16,0.05,0.34,0.16,0.53c0.79-2.31,2.32-4.01,4.14-5.5c0.84-0.69,1.68-1.39,2.45-2.16
		c1.09-1.09,1.7-2.39,1.36-3.97c-0.4,0.51-0.76,1.02-1.19,1.48c-0.13,0.14-0.48,0.24-0.63,0.17c-0.15-0.07-0.26-0.4-0.24-0.61
		c0.04-0.42,0.15-0.83,0.28-1.23c0.68-2.03,1.12-4.09,0.64-6.24c-0.3-1.32,0.88-1.95,1.36-3.01c1.21,0.68,1.92,1.68,2.42,2.81
		c0.49,1.12,0.82,2.31,1.2,3.42c0.74-2.07-0.13-5.59-1.94-7.37c-0.46-0.45-0.54-0.8-0.3-1.4c0.8-1.99,0.54-3.72-0.75-5.15
		c0.95,3.34-0.96,5.43-2.91,7.5c-0.12-0.01-0.25-0.01-0.37-0.02c-0.03-0.38-0.16-0.78-0.08-1.14c0.26-1.15,0.51-2.29,0.18-3.27
		c-0.6,1.24-1.25,2.58-1.97,4.04c0.93,0.89,1.85,2.07,1.73,3.67c-0.05,0.63-0.31,1.32-0.69,1.82c-1.03,1.32-2.56,1.19-5.3-0.3
		c-0.04,0.06-0.09,0.13-0.13,0.19c0.91,0.63,1.82,1.25,2.8,1.93c-0.34,0.06-0.65,0.17-0.96,0.17c-1.43,0-2.75-0.41-3.93-1.21
		c-1.02-0.69-1.11-1.61-0.34-2.56c0.28-0.35,0.6-0.7,0.79-1.1c0.42-0.87,1.04-1.44,1.96-1.76c0.98-0.34,1.78-0.92,1.92-2.08
		c0.01-0.12,0.02-0.24,0-0.36C207.68,266.11,207.62,266.04,207.56,265.89z"/>
	<path class="st3" d="M203.28,307.8c-2.24-3.86-1.24-7.3,1.21-10.57c1.9-2.53,4.27-4.58,6.62-6.65c0.08,0.05,0.17,0.1,0.25,0.14
		c-0.41,0.99-0.76,2-1.23,2.95c-0.48,0.97-1.07,1.88-1.71,2.99c3.37-1.58,6.33-3.46,8.98-6.27c-0.03,1.99,0.31,3.64,1.29,5.13
		c-0.44-5.62,3.14-9.83,5.07-14.91c0.55,1.77,1.15,3.23,2.76,4.19c-0.09-0.88-0.2-1.59-0.23-2.29c-0.13-2.69-0.06-5.4-0.41-8.06
		c-0.5-3.85-2.09-7.19-5.57-9.33c-0.28-0.17-0.57-0.31-0.99-0.41c4.39,5.42,3.74,11.12,1.05,17.22c-0.27-1.39-0.48-2.52-0.7-3.66
		c-0.39,3.77-1.51,7.14-4.44,9.74c2.15-4.75,2.08-9.49,0.04-14.26c0,0.18-0.02,0.36,0,0.54c0.86,6.21-1.48,11.09-6.17,15.05
		c-2.26,1.91-4.52,3.85-6.54,6c-2.03,2.16-3.17,4.8-2.58,7.89C200.37,305.24,201.57,306.7,203.28,307.8z"/>
	<path class="st3" d="M227,266.12c-2.4-3.24-6.59-4.27-9.13-7.68c0.4,1.68,1.1,3,2.14,4.07c1.34,1.39,2.79,2.68,4.22,3.98
		c2.68,2.44,3.47,3.96,3.84,7.51c1.54-2.18,1.98-9.25,0.83-14.33c2.05,1.15,4.05,2.07,6.31,2.32c-0.02-0.11-0.01-0.2-0.04-0.22
		c-2.69-1.74-3.98-4.48-5.21-7.26c-0.47-1.05-0.95-2.09-1.5-3.1c-2.19-4.07-5.8-5.39-10.24-5.13c3.83,1.4,7,3.45,7.99,8.09
		c-5.29-3.54-11.63-4.45-16.65-8.29c0.18,0.45,0.26,1.03,0.58,1.35c0.97,0.97,1.94,2.01,3.1,2.72c2.42,1.48,5.04,2.65,7.44,4.16
		c3.51,2.19,5.92,5.24,6.48,9.49c0.05,0.42,0.07,0.84,0.09,1.27c0.01,0.3,0,0.6,0,0.9C227.17,266.01,227.08,266.07,227,266.12z"/>
	<path class="st3" d="M185.18,234.92c1.76,2.87,4.07,4.1,7.13,3.89c2.35-0.16,4.7-0.44,7.06-0.46c1.27-0.01,2.61,0.23,3.8,0.68
		c2.97,1.1,4.12,3.76,3.06,6.76c-0.25,0.71-0.61,1.38-0.82,2.1c3.22-1.97,3.79-4.86,2.61-8.47c1.89,1.13,2.56,2.76,2.91,4.86
		c0.79-1.85,0.58-3.35-0.33-4.78c-1.26-1.98-3.23-2.95-5.38-3.61c-2.78-0.84-5.62-0.7-8.46-0.31c-1.41,0.19-2.81,0.41-4.22,0.6
		C190.05,236.52,187.6,236.57,185.18,234.92z"/>
	<path class="st3" d="M211.05,245.66c4.39,0.51,7.28-2.24,7.21-6.97c1.48,1.43,1.88,2.99,1.3,4.89c1.69-0.91,2.29-3.03,1.5-4.98
		c-0.63-1.56-1.71-2.8-3.3-3.3c-2.23-0.71-4.53-1.26-6.83-1.71c-2.54-0.5-5.12-0.82-7.35-2.34c-0.06,0.07-0.11,0.13-0.17,0.2
		c0.5,0.52,0.91,1.2,1.52,1.53c1.66,0.91,3.4,1.69,5.12,2.49c1.04,0.49,2.15,0.84,3.13,1.41c2.05,1.19,2.63,3.46,1.56,5.58
		C213.95,244.02,212.62,244.96,211.05,245.66z"/>
	<path class="st3" d="M202.23,248.33c0.21-1.53-0.04-2.95-1.1-4.12c-1.04-1.15-2.46-1.55-3.89-1.97c1.13-0.41,2.29-0.4,3.37-0.04
		c1.03,0.35,1.97,0.95,2.91,1.41c-0.32-1.71-1.98-3.36-3.88-3.37c-1.73-0.01-3.48,0.3-5.19,0.61c-1.75,0.32-3.46,0.88-5.21,1.2
		c-1.03,0.19-2.11,0.21-3.16,0.13c-1.01-0.08-2-0.38-3.11-0.61c1.05,1.45,2.38,2.4,4.05,2.55c1.7,0.15,3.43-0.01,5.15-0.05
		c1.18-0.03,2.36-0.16,3.53-0.13c2.47,0.07,4.38,1.22,5.78,3.25C201.74,247.57,201.99,247.95,202.23,248.33z"/>
	<path class="st3" d="M199.12,278.58c-1.15,2.03-1.57,4.14-0.68,6.37c0.34,0.84,0.77,1.64,1.24,2.42c1.15,1.9,2.04,3.86,1.54,6.19
		c2.35-0.72,4.57-5.44,4.33-8.97c-0.84,1.26-1.72,2.59-2.59,3.92c-0.07-0.05-0.15-0.09-0.22-0.14c-0.53-2.55-1.06-5.11-1.61-7.75
		c-0.31,1.24-0.63,2.47-0.97,3.84C199.06,282.59,199.13,280.59,199.12,278.58z"/>
	<path class="st3" d="M198.06,246.47c-2.46-1.46-4.91-1.83-7.38-0.08c-0.42,0.3-0.84,0.59-1.24,0.91c-3.72,2.89-5.03,3.27-9.87,2.76
		c1.54,1.01,2.98,1.57,4.57,1.74c2.28,0.24,4.18-0.72,5.99-1.94c0.7-0.47,1.39-0.97,2.09-1.44
		C193.98,247.22,195.86,246.37,198.06,246.47z"/>
	<path class="st3" d="M210.05,255.33c0.27,0.57,0.54,1.14,0.88,1.84c1.33-0.46,2.45-1.4,3.47-2.48c-0.01-0.11-0.01-0.21-0.02-0.32
		c-1.89-0.15-3.77-0.3-5.54-0.44c1.29-0.76,2.85-0.8,4.51-0.49c-0.9-0.69-2.4-0.92-3.78-0.37c-1.14,0.45-2.23,1.08-3.27,1.74
		c-1.02,0.64-1.17,0.7-2.09-0.11c-0.29-0.26-0.54-0.57-0.81-0.85c-0.08,0.04-0.15,0.08-0.23,0.12c0.35,0.69,0.58,1.49,1.08,2.04
		c1.75,1.91,2.24,4.16,2.08,6.73c0.55-1.18,0.82-3.73,0.66-5.62c-0.02-0.27,0.08-0.55,0.13-0.82c0.23,0.09,0.48,0.16,0.69,0.28
		c0.85,0.46,1.45,0.12,1.9-1.1C209.84,255.42,209.95,255.37,210.05,255.33z"/>
	<path class="st3" d="M193.04,268.69c0.42-0.4,0.73-0.69,0.95-0.9c-0.7-1.4-1.38-2.75-2.02-4.03
		C191.53,265.42,192.24,266.98,193.04,268.69z"/>
</g>
<text transform="matrix(1 0 0 1 318.5005 236.9971)" class="st3 st9 st10">Nakayô</text>
<g>
	<path d="M344.07,341.53c-0.83-2.06-2.89-3.68-6.19-4.85c-0.42-0.13-0.81-0.27-1.19-0.41c-0.38-0.14-0.74-0.24-1.08-0.31
		c-1.86-0.48-3.73-0.93-5.63-1.34c-1.89-0.41-3.83-0.86-5.82-1.34c2.13-0.41,4.16-0.86,6.08-1.34c1.93-0.48,3.82-1.14,5.68-1.96
		c1.16-0.55,2.15-1.24,2.94-2.07c0.79-0.82,1.32-1.92,1.6-3.3c0.34-1.92,0.46-3.82,0.36-5.67c-0.11-1.86-0.57-3.72-1.4-5.57
		c-0.68-1.65-1.79-2.62-3.3-2.89c-1.72-0.35-3.42-0.64-5.1-0.88c-1.69-0.24-3.39-0.43-5.11-0.57c-6.67-0.41-13.36-0.58-20.07-0.51
		c-6.7,0.07-13.39,0.27-20.06,0.62c-1.79,0.07-1.55,0.14-3.27,0.2c-1.72,0.07-3.47,0.28-5.26,0.62c-0.75,0.14-1.25,0.36-1.49,0.67
		c-0.25,0.31-0.23,0.88,0.05,1.7c0.34,0.97,0.58,1.96,0.72,3c0.14,1.03,0.27,2.06,0.41,3.09c0.55,2.96,2.2,4.13,4.96,3.51
		c0.5-0.09-1-0.18-0.49-0.27v-0.01c10.12-3.69,23-2.54,26.63-2.12c3.42,0.04,6.77,0.19,10.08,0.44c5.47,0.41,10.92,1.24,16.35,2.48
		c-0.48,0.75-1.01,1.35-1.6,1.8c-0.58,0.45-1.18,0.81-1.8,1.08c-4.54,2.07-9.13,3.75-13.78,5.06c-4.45,1.26-8.98,2.28-13.59,3.1
		l-0.2,0.51l-0.43,4.34c0.2-0.03,0.42-0.03,0.66-0.01c5.29,0.21,10.5,0.61,15.63,1.19c5.12,0.59,10.16,2.08,15.11,4.49
		c1.1,0.48,2,1.03,2.68,1.65c0.9,0.69,1.33,1.48,1.29,2.37c-0.03,0.9-0.53,1.58-1.49,2.06c-3.96,1.94-7.98,3.34-12.04,4.22
		c-5.4,1.3-11.31,1.61-15.44,1.65l0.03,0.04c-1.65,0-3.19-0.04-4.63-0.12c-0.46-0.02-0.71-0.04-0.71-0.04
		c-8.28-0.51-12.9-2.07-13.23-2.18c-0.01-0.01-0.01-0.01-0.02-0.01c-0.4-0.1-0.79-0.22-1.16-0.36c-0.93-0.34-1.77-0.86-2.53-1.54
		c-0.34-0.21-0.67-0.47-0.98-0.78s-0.67-0.29-1.08,0.05c-0.35,0.21-0.57,0.5-0.67,0.88c-0.11,0.38-0.19,0.77-0.26,1.19
		c-0.28,4.26,1.51,7.18,5.36,8.77c2.07,0.96,4.16,1.6,6.3,1.9c2.13,0.31,4.29,0.54,6.5,0.68c7.29,0.48,14.58-0.42,21.87-2.69
		c0.55-0.2,1.12-0.45,1.7-0.72c0.58-0.28,1.22-0.48,1.91-0.62c3.37-0.55,6.34-1.67,8.92-3.35c2.58-1.69,4.63-4.18,6.14-7.48
		C344.51,346.28,344.89,343.6,344.07,341.53z"/>
</g>
</svg>
